<svg xmlns="http://www.w3.org/2000/svg" viewBox="0 0 415.25 57.31"><defs><style>.cls-1{fill:#231815;}</style></defs><g id="レイヤー_2" data-name="レイヤー 2"><g id="レイヤー_1-2" data-name="レイヤー 1"><path class="cls-1" d="M.21,28.27a.8.8,0,0,1-.07-1,72.15,72.15,0,0,1,12.62-6.08,56.57,56.57,0,0,1,9.35-2.65,3.46,3.46,0,0,1,2.58.26.79.79,0,0,1,.28,1,67.44,67.44,0,0,0-11.86,3.5,104.8,104.8,0,0,0-11,5.17A2.67,2.67,0,0,1,.21,28.27ZM31.74,49a11,11,0,0,1-4.81-.91,51.68,51.68,0,0,1-11.58-7.5,26.78,26.78,0,0,1-5.1,3.62,21.46,21.46,0,0,1-7.32,2.4,1.35,1.35,0,0,1-1.19-.39c0-.65.84-1,1.4-1.23a27.62,27.62,0,0,0,5.72-2.39A20.41,20.41,0,0,0,13.53,39c-2.86-2.59-5.86-5.11-9.42-6.34a.69.69,0,0,1-.21-1.1A1.76,1.76,0,0,1,5,31.05a8.7,8.7,0,0,1,4.81,2.07c1.75,1.3,3.49,2.79,5.24,4.21,1.67-1.94,2.16-4.4,2.65-6.79.63-2.79,1.11-5.7,3.42-7.83.35-.26,1.25-.52,1.53.06a.9.9,0,0,1-.28.72,2,2,0,0,0-.42.64,54.55,54.55,0,0,0-1.81,7.44,15.48,15.48,0,0,1-3.35,7.31c1.88,1.49,3.84,3,5.86,4.47a20.46,20.46,0,0,0,6.63,3.1,10.66,10.66,0,0,0,5.16.13,8.43,8.43,0,0,0,2.09-.65l1.82-.84a.62.62,0,0,1,.42,1c-.42.84-1.33,1.16-2,1.62A11.7,11.7,0,0,1,31.74,49Zm-13-34.94a5.62,5.62,0,0,0-.83-.51A36.93,36.93,0,0,0,13,12c-1.67-.38-3.41-.77-5.16-1.1l-.63-.32A1,1,0,0,1,6.7,10,.43.43,0,0,1,7,9.32c.14-.13.28-.07.49-.26a31,31,0,0,1,10.61,2.39,3.59,3.59,0,0,1,1.95,1.88,1.08,1.08,0,0,1-.28,1.16A3,3,0,0,1,18.76,14.1Z"/><path class="cls-1" d="M70.67,26.66c-.35,0-.77-.59-.49-.78,1.54-1,4.26-2.65,5.16-4.14,0-.39-.27-.52-.69-.52a34,34,0,0,0-8.24,1.36,33.46,33.46,0,0,0-10.32,5.17,20.11,20.11,0,0,0-5.16,5.31A12.31,12.31,0,0,0,49.18,38c-.42.64-.21,2.59-1.53,2.84a.79.79,0,0,1-1-.77,15,15,0,0,1,.14-2.53c.14-.77.28-1.55.35-2.39a36.76,36.76,0,0,1,1.67-9.19,24.61,24.61,0,0,1,2.93-6,1.13,1.13,0,0,1,1.61-.33,1,1,0,0,1,0,1.23,26.42,26.42,0,0,0-2.3,4.79,26.08,26.08,0,0,0-1.47,6A30.83,30.83,0,0,1,58.39,24a35,35,0,0,1,7.12-3.17,38.61,38.61,0,0,1,7.11-1.62c2-.25,4,0,5.31,1.75a2.51,2.51,0,0,1-.84,2.14A11.41,11.41,0,0,1,70.67,26.66ZM83.58,50c.28-.78,1.46-1.69,1.32-2.53a17.58,17.58,0,0,1-3.84-.84,6.39,6.39,0,0,1-4.18-3.82,9,9,0,0,1-.42-3.42,31.52,31.52,0,0,1,.84-6.28A86.94,86.94,0,0,0,71,40a19.89,19.89,0,0,1-2.23,10.1,14.11,14.11,0,0,1-5.51,5.37,13.61,13.61,0,0,1-5.38,1.81,7.81,7.81,0,0,1-3.83-.46,3.29,3.29,0,0,1-1.68-1.87,1.11,1.11,0,0,1,.63-1.1c.7.19,1,1,1.53,1.36a4.62,4.62,0,0,0,2.8.45A12,12,0,0,0,61,54.54a12.54,12.54,0,0,0,5.65-5.24,16.08,16.08,0,0,0,2-6.66c-2.51,2.39-4.82,5.3-7.4,7.63-.63.39-1.11,1.1-2,1a1.16,1.16,0,0,1-.91-.84c.84-2.52,2.3-4.72,3.21-7.12-1.32,1-3.56,3.24-5.51,4.08-.7,0-1.33-.07-1.6-.71a4.37,4.37,0,0,1,.69-2.33,20.59,20.59,0,0,1,1.26-2,22.67,22.67,0,0,1,4.32-5.37c.35-.06.84.71.56,1.17-1.39,2.39-2.86,4.2-4.11,6.66,1.74-.78,3.48-3.23,5.58-3.88a1,1,0,0,1,1.18.84c-.14,2.13-1.18,3.3-1.88,5.18,2.3-2.27,4.6-4.6,6.7-6.86a21,21,0,0,0-.63-3.95,3,3,0,0,0-1.68-1.75,6.42,6.42,0,0,0-2.23,0c-1.81.26-3.83,1.3-5.65,1.88a1.27,1.27,0,0,1-.14-2c1.19-1,2.3-2.13,3.56-3.17,1-1,2.09-1.94,3-2.91a35.71,35.71,0,0,0-8.72,4.27c-.42.26-1-.19-1-.51a5.41,5.41,0,0,1,2.1-2.33,36.47,36.47,0,0,1,9-3.89c.76,0,1.6-.06,2,.72a2,2,0,0,1-.84,1.87c-1.67,1.56-3.49,3-5.09,4.6a11.13,11.13,0,0,1,4.6-.46A4.68,4.68,0,0,1,70,34.94a11.35,11.35,0,0,1,.84,2.78,105.3,105.3,0,0,0,7.26-8.35,2.6,2.6,0,0,1,1.18-1.23,1.13,1.13,0,0,1,1.33.59,9.51,9.51,0,0,1-.49,2.45,17.72,17.72,0,0,0-.7,2.4,29,29,0,0,0-.63,8.15,5.25,5.25,0,0,0,2.79,2.91,10.64,10.64,0,0,0,3.84.65,6.31,6.31,0,0,1,1.81.52c.56.25.56,1,.49,1.48a8,8,0,0,1-3.28,3.24C84.06,50.72,83.23,50.4,83.58,50ZM68,16.24c1,0,1.39.71,1,1.29A34.65,34.65,0,0,0,61.46,21c-1.11.13-1.46-.52-1.18-1.3,1.18-1,2.44-2,3.69-3.1a28,28,0,0,0,3.21-3.37,1,1,0,0,0-1-.19,10.66,10.66,0,0,0-3.77,2.26,7.27,7.27,0,0,0-2.51,3.43.89.89,0,0,1-1.47.13,9,9,0,0,1,.84-5.11,10.13,10.13,0,0,1,2.93-4.4A48.74,48.74,0,0,0,55,10.67c-.62,0-1-.58-1.11-1a1.4,1.4,0,0,1,.9-1.23L60,6.53A23.6,23.6,0,0,0,65,4c.14-.06.14-.32.14-.52A6.08,6.08,0,0,0,62,2.59c-1.12-.2-4.05-.52-5.44-.65a1.2,1.2,0,0,1-.63-1A3.7,3.7,0,0,1,57.07,0c1.74.13,3.41.26,5,.45a15.1,15.1,0,0,1,4.6,1.36,1.68,1.68,0,0,1,1,2.07,3.53,3.53,0,0,1-2.09,1.68c-1.12.72-3.49,1.49-4.82,2.14,2.38-.26,5.79-.78,7.61-1,1.18,0,1.74.84,1.32,1.49A17.42,17.42,0,0,1,67,9c-.83.26-1.67.52-2.44.84a5.33,5.33,0,0,0-2.37,2.33,7,7,0,0,0-.84,1.94,17,17,0,0,1,5-3,2.49,2.49,0,0,1,2.24.52,1.89,1.89,0,0,1,.63,2.07,16,16,0,0,1-2.8,2.84A7.07,7.07,0,0,1,68,16.24Z"/><path class="cls-1" d="M110,46.13c-2.09-.2-3.56-2.14-4.4-3.56a20.5,20.5,0,0,1-2.44-10.42,38.43,38.43,0,0,1,2-11.84,30.25,30.25,0,0,1,3.9-7.95c.49-.65,1.75-1.1,2.16-.26-.69,1.87-2,3.43-2.65,5.17a43.06,43.06,0,0,0-3.14,14.37,22.8,22.8,0,0,0,1.12,7.82,7.06,7.06,0,0,0,3.49,4.4,1.64,1.64,0,0,0,1.25-.77,2.72,2.72,0,0,0,.49-.71,2.48,2.48,0,0,0,.42-.65.65.65,0,0,1,.77-.39.68.68,0,0,1,.49.71,8.8,8.8,0,0,1-1.54,3.11A2.54,2.54,0,0,1,110,46.13ZM140.51,17a74.45,74.45,0,0,1-1.12,14.82,14.19,14.19,0,0,1,5.3,4.2,9,9,0,0,1,1.95,5.7A11.23,11.23,0,0,1,142.32,50c-.7.45-1.75-.13-1-.91a13.24,13.24,0,0,0,2.65-4.59,7.35,7.35,0,0,0-.14-6,10.25,10.25,0,0,0-4.67-4.6,33.54,33.54,0,0,1-3.28,7.83,17.58,17.58,0,0,1-5.3,5.69c-1.61,1-3.42,2.27-5.72,1.68a4.08,4.08,0,0,1-2.44-2.52c-.63-5.5,2.09-10.16,6.69-13.46a11.21,11.21,0,0,1,8.17-2,55,55,0,0,0,.76-14,52.48,52.48,0,0,0-17.44,3.56c-.49-.26-.9-.51-1-1s.69-1,1.18-1.23A59.46,59.46,0,0,1,137.85,15c0-2.14-.48-4.34-.55-6.53a1,1,0,0,1,1.6-.33,7,7,0,0,1,1,3.17c.14,1.23.21,2.52.35,3.56a35.54,35.54,0,0,0,3.69.06,20.77,20.77,0,0,1,3.91.2,1,1,0,0,1-.7,1.68ZM124.74,42.44c-.28,1.3-.91,3.11.07,4.27.42.52,1.25.45,2,.39a15.53,15.53,0,0,0,6.63-5.56,23.61,23.61,0,0,0,3.42-8.48,9.06,9.06,0,0,0-6.56,1.81A15.86,15.86,0,0,0,124.74,42.44Z"/><path class="cls-1" d="M181.88,27.43a41.34,41.34,0,0,0-5.37,6.34A7.55,7.55,0,0,1,181,35.13a4.67,4.67,0,0,1,1.81,3,10.7,10.7,0,0,1-1.11,5.69,8.16,8.16,0,0,1-4.54,4.2,2.52,2.52,0,0,1-2.23-.71,5,5,0,0,1-.63-2.65c0-1,.14-1.94.14-2.78a6.51,6.51,0,0,1,.28-1.23,2.8,2.8,0,0,1,.49-1.17c.77-.19.91.59.91,1a20.24,20.24,0,0,0,0,5c.14.33.56.39,1,.2a9.37,9.37,0,0,0,2.93-3.89,6.85,6.85,0,0,0,.42-3.94,3.31,3.31,0,0,0-2.37-1.94,11,11,0,0,0-2.93-.13c-2.44,3.49-4.32,7.24-6.49,10.93l-.56.26a.55.55,0,0,1-.69,0,.73.73,0,0,1-.28-.71,2.55,2.55,0,0,0,.14-.71c1.53-3.11,3.21-6.28,5.09-9.32a55.73,55.73,0,0,1,6.28-8.41c-2.09.71-5.44,2.26-6.42,2.65a30.67,30.67,0,0,1-6.63,1.94c-.83.07-2.09-.39-2-1.42a2.14,2.14,0,0,1,1.19-.52,2.89,2.89,0,0,0,1-.13,68.74,68.74,0,0,0,8.3-2.84,45.34,45.34,0,0,1,8.38-2.72c.2.13.41.06.62.06a.81.81,0,0,1,.63.52,1.64,1.64,0,0,1-.91,1.17A3.34,3.34,0,0,0,181.88,27.43Zm-1-6a4.3,4.3,0,0,0,1.61-1.3,7.09,7.09,0,0,0-2.86-1c-1.12-.19-2.24-.32-3.35-.45a32.14,32.14,0,0,1-3.35-.58A6,6,0,0,1,170,16.37c.28-.91.7-1.1,1.32-1a6.57,6.57,0,0,0,2.24.84c1.88.45,3.83.58,5.65.84a12,12,0,0,1,5.37,1.81,1.18,1.18,0,0,1,.14,1.49,6.24,6.24,0,0,1-3.56,1.88C180.76,22.26,180.34,21.67,180.9,21.42Zm35.65,29.95c-.42-.07-.91-.26-1.33-.32a45.26,45.26,0,0,1-6-3.11c-1.81-1.1-3.55-2.33-5.51-3.69a36.33,36.33,0,0,1-7.53,6.8,4.17,4.17,0,0,1-3.42.51,3.45,3.45,0,0,1-2.23-2.39,20,20,0,0,1-.63-5.76,18.08,18.08,0,0,1,1.81-8.28,15.13,15.13,0,0,1,3.77-4.72,82.39,82.39,0,0,0,6.35-5.57c.21-.19,1-1,1-1.29a6.36,6.36,0,0,0-1.47.45c-.56.2-1.11.52-1.74.71-1.75.91-3.42,2-5.16,3A29.16,29.16,0,0,1,189.69,30a2.94,2.94,0,0,1-2.09-.32.68.68,0,0,1,0-1c1.39-.65,2.79-1,4.11-1.62,2-1,3.77-2.2,5.66-3.24a23.06,23.06,0,0,1,6.06-2.39,1.91,1.91,0,0,1,2.38,1c.35.84-.28,1.55-.84,2.14A33.22,33.22,0,0,1,201.06,28c-1.39,1-2.86,2.13-4.18,3.3a13.42,13.42,0,0,0-3.56,4.59A22.39,22.39,0,0,0,192.13,43a24,24,0,0,0,.35,4.59c.21.84.21,1.68,1.12,2.07a3.71,3.71,0,0,0,1.88-.39,43.86,43.86,0,0,0,6.7-6.21c-.91-.84-2.65-2.58-3.56-3.49a1.39,1.39,0,0,1,0-1.55c1.61-1.1,3.21-2.27,4.81-3.24a39.13,39.13,0,0,1,6.77-3.43,2.48,2.48,0,0,1,1,.33.93.93,0,0,1,.7.77,1.86,1.86,0,0,1-.21,1v.32a71.63,71.63,0,0,1-6.7,8.87c2.16,1.42,4.05,2.71,6,3.88a31.92,31.92,0,0,0,6.63,3.1,1.53,1.53,0,0,0,.76.07,1.3,1.3,0,0,1,1,.19,2.09,2.09,0,0,1-1.4,1.49A2.78,2.78,0,0,1,216.55,51.37Zm-10.39-36c-.14-.26-.21-.46-.56-.46a20.31,20.31,0,0,0-6.28.91c-2,.58-4,1.42-6,2.07a3.18,3.18,0,0,1-3.35-.45,3.4,3.4,0,0,1-.63-3.75A24.77,24.77,0,0,0,191,8.15a3.21,3.21,0,0,0-.14-1.62,1.05,1.05,0,0,1,.69-.9,2.53,2.53,0,0,1,1.26.39,3.19,3.19,0,0,1,.35,2.65,42.87,42.87,0,0,1-2,6.34c-.14.71.69,1.16,1.39,1,2.09-.71,4.12-1.49,6.21-2.07a25,25,0,0,1,6.7-1,4.21,4.21,0,0,1,1.95.52c.49.45.42,1,.42,1.62a1.53,1.53,0,0,1-1,.84C206.3,16,206.22,15.66,206.16,15.4ZM204.27,36c-1.18.78-2.3,1.68-3.42,2.59A4.08,4.08,0,0,0,202,40.11c.49.52,1.12.91,1.6,1.36q1.68-1.84,3.14-3.69a26.61,26.61,0,0,0,2.93-4.2c.07-.2-.21-.52-.42-.39A25.71,25.71,0,0,0,204.27,36Z"/><path class="cls-1" d="M280,22.13a10.88,10.88,0,0,0-4.47,1.68,56.66,56.66,0,0,0-7,5.56A88.7,88.7,0,0,1,268.6,39c-.14.52-1,.39-1.12.13a7.66,7.66,0,0,1-1.12-3.75c-.07-1.23,0-2.52-.07-3.75a34.22,34.22,0,0,0-7.67,10.67,5,5,0,0,0,1.12,5.5c1.39,1.55,4.25,1.94,6.41,2a82.88,82.88,0,0,0,9.21-.59,3.14,3.14,0,0,1,2.24.52,1.22,1.22,0,0,1-1.05.84,6.78,6.78,0,0,0-1.12.33,37.32,37.32,0,0,1-12.34.77,8.41,8.41,0,0,1-6.28-3.94c-2-3.56-.35-6.93,1.67-10,.77-1.23,1.68-2.39,2.37-3.49A49.85,49.85,0,0,1,266,28.73a4.76,4.76,0,0,0-2.51-3.5,10.34,10.34,0,0,0-5.23-.65,15.63,15.63,0,0,0-7.67,2.79,34.21,34.21,0,0,1-7.54,8.86,1,1,0,0,1-1-1.55,42.41,42.41,0,0,1,6.35-7.44,122.64,122.64,0,0,0,6.9-14.17c-6.76.26-13.25,2.07-19.6,3a15.08,15.08,0,0,0-1.75.26,8.56,8.56,0,0,1-1.81.06c-.63-.06-1.67-.45-1.67-1.23a119.74,119.74,0,0,1,25.67-4.27c.35-1,1.32-3.3,1.88-4.59a1.11,1.11,0,0,1,1.54-.26A1.1,1.1,0,0,1,260,7.44c-.49,1.23-1,2.39-1.33,3.56l.7.19c1,.26,1.88.33,2.51,1.17.14.32-.14.77-.49,1-1.18-.07-2.3-.26-3.42-.33a110.52,110.52,0,0,1-5.23,10.87,19.8,19.8,0,0,1,5.23-1.36c2.51-.19,5.17-.13,7.26,1.17a7.05,7.05,0,0,1,2.72,3.23c1.32-1,2.65-2.13,4.05-3.17a33.08,33.08,0,0,1,4.6-2.78,7.26,7.26,0,0,1,4.39-1,2.9,2.9,0,0,1,2.66,1.42c.2.32.14,1.1-.49,1A7.64,7.64,0,0,0,280,22.13Z"/><path class="cls-1" d="M331.39,25.23a11.92,11.92,0,0,1,5.3,6.15,18,18,0,0,1,.7,9.06A20.91,20.91,0,0,1,334.6,48a24.33,24.33,0,0,1-8,8.35c-.42.26-.9-.19-.62-.52,1.18-1.23,2.51-2.33,3.62-3.62A25.71,25.71,0,0,0,334.25,44a20.37,20.37,0,0,0,.9-9.9,10.35,10.35,0,0,0-4.25-6.66c-.49,1-.7,2.07-1.12,3.11-1.25,3-3.83,6.66-7.67,7.24a5.84,5.84,0,0,1-5.86-2.84,5,5,0,0,1,.28-5.31c2.3-2.78,5.86-4.07,9.28-4.85a7.83,7.83,0,0,1,3.27,0,41.39,41.39,0,0,0,.77-10.68,83.91,83.91,0,0,0-19,3.63,3.49,3.49,0,0,0-.84.13,1.63,1.63,0,0,1-1-.2.75.75,0,0,1-.28-1.23c6.49-2.71,13.54-3.81,20.86-4.53a36.7,36.7,0,0,0-.83-7.18,1.23,1.23,0,0,1-.14-1.29.93.93,0,0,1,1.25-.07,3.17,3.17,0,0,1,.84,1.1A26,26,0,0,1,332,11.77c1.75,0,3.63-.12,5.52-.19a32,32,0,0,1,5.58.13c.69.06.42.91.07,1a102.53,102.53,0,0,1-11,1.16A56.79,56.79,0,0,1,331.39,25.23Zm-13.26,6.34a3.33,3.33,0,0,0,1.05,3.37,4.45,4.45,0,0,0,2.86.64c2.51-.64,4.39-3.17,5.23-5.3a16.07,16.07,0,0,0,1.19-3.5,14.3,14.3,0,0,0-5.24,1C321.34,28.66,318.76,29.37,318.13,31.57Z"/><path class="cls-1" d="M401.22,49.49a18.87,18.87,0,0,1-9.62,1.68,5.74,5.74,0,0,1-4.54-3.1c-1.05-2.39.35-4.53,1.68-6.28a10.11,10.11,0,0,1,9-3.17,5,5,0,0,1,3.77,2.72c.21.45-.07.91-.56,1.17a6.34,6.34,0,0,1-1-.59,5.54,5.54,0,0,0-2.72-1.29,8.51,8.51,0,0,0-7.54,3.62,3.35,3.35,0,0,0-.56,2.78,3.1,3.1,0,0,0,2.52,2,17.27,17.27,0,0,0,9.62-1.94A23.58,23.58,0,0,0,410.36,38a22,22,0,0,0,2.58-8.41,3.56,3.56,0,0,0-1.25-2.46c-2.3-1.3-5.37-1.3-8.3-1.1A38.74,38.74,0,0,0,392.71,30a69,69,0,0,0-11.79,8.61.72.72,0,0,0-.35.06h-.28a.79.79,0,0,1-.62-.25c-.28-.39-.49-.72-.14-1.23a131.8,131.8,0,0,0,11-10.16,181.51,181.51,0,0,0,13.11-15.33c-6.48-.13-12.55-1-18-3.63a.93.93,0,0,1-.21-1.16,1,1,0,0,1,1.11-.52,9.05,9.05,0,0,1,1.12.19L391.32,8a20.1,20.1,0,0,0,3.83,1,66.47,66.47,0,0,0,10.26.52,1.58,1.58,0,0,1,1,.9c.2,1-.49,1.68-1,2.46L399.2,20.7c-1.81,2.27-3.7,4.4-5.72,6.54a29.55,29.55,0,0,1,10-3.37,17.78,17.78,0,0,1,8.58,1c1.67.84,3.21,2.4,3.14,4.27a22.38,22.38,0,0,1-5.31,13.53A24.79,24.79,0,0,1,401.22,49.49Z"/></g></g></svg>